<svg width="145" height="32" viewBox="0 0 145 32" fill="none" xmlns="http://www.w3.org/2000/svg">
<g clip-path="url(#clip0_222_1877)">
<path fill-rule="evenodd" clip-rule="evenodd" d="M19.4484 23.6415V29.18H22.6221C26.7584 29.18 30.1417 25.7967 30.1417 21.6604V19.1129H24.6032V21.6604C24.6032 22.7508 23.7113 23.6415 22.6221 23.6415H19.4471H19.4484Z" fill="#FEFEFE"/>
<path fill-rule="evenodd" clip-rule="evenodd" d="M24.6044 12.1184H30.1429V10.3396C30.1417 6.20334 26.7584 2.82001 22.6221 2.82001H7.51959C3.38333 2.82001 0 6.20334 0 10.3396V12.0173H5.53857V10.3396C5.53857 9.24919 6.4304 8.35858 7.51959 8.35858H12.1188V29.18H18.0217V8.35858H22.6221C23.7113 8.35858 24.6032 9.2504 24.6032 10.3396V12.1184H24.6044Z" fill="#FEFEFE"/>
<path fill-rule="evenodd" clip-rule="evenodd" d="M10.7555 29.18V23.6415H7.52081C6.4304 23.6415 5.53979 22.7508 5.53979 21.6604V13.433H0V21.6604C0 25.7967 3.38333 29.18 7.51959 29.18H10.7555Z" fill="#FEFEFE"/>
</g>
<path d="M42.5417 12.24H38.5417V10.02H49.6417V12.24H45.6617V23H42.5417V12.24ZM51.3163 9H54.2363V14.5C54.4229 13.58 55.4429 13.12 57.2963 13.12C58.5363 13.12 59.4029 13.3467 59.8963 13.8C60.4029 14.24 60.6563 14.94 60.6563 15.9V23H57.7363V16.24C57.7363 15.8667 57.6963 15.5933 57.6163 15.42C57.5496 15.2333 57.4096 15.1067 57.1963 15.04C56.9829 14.96 56.6429 14.92 56.1763 14.92C55.6029 14.92 55.1829 14.9533 54.9163 15.02C54.6496 15.0867 54.4696 15.2133 54.3763 15.4C54.2829 15.5733 54.2363 15.8533 54.2363 16.24V23H51.3163V9ZM63.2108 13.32H65.9908V15.02C65.9908 14.7133 66.1175 14.4133 66.3708 14.12C66.6241 13.8267 66.9441 13.5867 67.3308 13.4C67.7308 13.2133 68.1241 13.12 68.5108 13.12H69.5508V15.54H68.5508C67.7241 15.54 67.1108 15.6667 66.7108 15.92C66.3241 16.1733 66.1308 16.5933 66.1308 17.18V23H63.2108V13.32ZM71.24 9.82H74.16V12.18H71.24V9.82ZM71.24 13.32H74.16V23H71.24V13.32ZM77.5445 15.12H75.7245V13.32H77.5445V11.86C77.5445 11.0733 77.6712 10.46 77.9245 10.02C78.1912 9.56667 78.5912 9.25333 79.1245 9.08C79.6712 8.89333 80.3979 8.8 81.3045 8.8C81.7979 8.8 82.5245 8.85333 83.4845 8.96V10.76C82.6312 10.6533 82.0579 10.6 81.7645 10.6C81.2712 10.6 80.9312 10.68 80.7445 10.84C80.5579 10.9867 80.4645 11.2733 80.4645 11.7V13.32H83.1245V15.12H80.4645V23H77.5445V15.12ZM89.3984 23.2C88.9051 23.2 88.4918 23.18 88.1584 23.14C87.8251 23.1 87.4918 23.02 87.1584 22.9C86.7851 22.78 86.4784 22.6133 86.2384 22.4C86.0118 22.1867 85.8251 21.8933 85.6784 21.52C85.5184 21.1333 85.4384 20.6867 85.4384 20.18V15.12H83.4784V13.32H85.4384V10.52H88.3584V13.32H91.0184V15.12H88.3584V19.68C88.3584 20.1467 88.3984 20.5 88.4784 20.74C88.5584 20.9667 88.7118 21.1333 88.9384 21.24C89.1651 21.3333 89.5118 21.38 89.9784 21.38C90.1651 21.38 90.5118 21.3467 91.0184 21.28V23.1C90.3918 23.1667 89.8518 23.2 89.3984 23.2ZM98.563 23.2C97.9763 23.2 97.4496 23.1733 96.983 23.12C96.5296 23.0667 96.0296 22.9667 95.483 22.82C94.8696 22.66 94.363 22.4533 93.963 22.2C93.563 21.9333 93.2296 21.5667 92.963 21.1C92.683 20.6333 92.543 20.08 92.543 19.44V13.74C92.543 11.1267 94.5496 9.82 98.563 9.82C99.5896 9.82 100.963 9.96667 102.683 10.26V12.6C101.136 12.2267 99.7763 12.04 98.603 12.04C98.1096 12.04 97.723 12.0533 97.443 12.08C97.1763 12.1067 96.8963 12.1733 96.603 12.28C95.9763 12.4933 95.663 12.9667 95.663 13.7V19.22C95.663 20.3933 96.7363 20.98 98.883 20.98C99.803 20.98 101.096 20.7867 102.763 20.4V22.76C101.336 23.0533 99.9363 23.2 98.563 23.2ZM104.637 9H107.557V14.5C107.743 13.58 108.763 13.12 110.617 13.12C111.857 13.12 112.723 13.3467 113.217 13.8C113.723 14.24 113.977 14.94 113.977 15.9V23H111.057V16.24C111.057 15.8667 111.017 15.5933 110.937 15.42C110.87 15.2333 110.73 15.1067 110.517 15.04C110.303 14.96 109.963 14.92 109.497 14.92C108.923 14.92 108.503 14.9533 108.237 15.02C107.97 15.0867 107.79 15.2133 107.697 15.4C107.603 15.5733 107.557 15.8533 107.557 16.24V23H104.637V9ZM119.271 23.2C118.364 23.2 117.684 23.12 117.231 22.96C116.791 22.7867 116.478 22.4867 116.291 22.06C116.118 21.62 116.031 20.9667 116.031 20.1C116.031 19.3267 116.124 18.72 116.311 18.28C116.511 17.84 116.824 17.5267 117.251 17.34C117.691 17.14 118.291 17.04 119.051 17.04H122.331V16.38C122.331 15.9667 122.271 15.66 122.151 15.46C122.044 15.26 121.838 15.12 121.531 15.04C121.238 14.96 120.791 14.92 120.191 14.92C119.364 14.92 118.231 15 116.791 15.16V13.32C117.844 13.1867 119.078 13.12 120.491 13.12C121.731 13.12 122.684 13.2133 123.351 13.4C124.031 13.5867 124.518 13.9067 124.811 14.36C125.104 14.8133 125.251 15.4733 125.251 16.34V23H122.391V22.12C122.164 22.5067 121.858 22.78 121.471 22.94C121.084 23.1133 120.351 23.2 119.271 23.2ZM120.411 21.38C120.998 21.38 121.418 21.36 121.671 21.32C121.858 21.2933 121.984 21.2533 122.051 21.2C122.131 21.1467 122.198 21.06 122.251 20.94C122.304 20.8467 122.331 20.7067 122.331 20.52V18.64H120.331C119.878 18.64 119.558 18.6733 119.371 18.74C119.184 18.7933 119.058 18.9133 118.991 19.1C118.924 19.2733 118.891 19.5867 118.891 20.04C118.891 20.48 118.924 20.7867 118.991 20.96C119.058 21.1333 119.184 21.2467 119.371 21.3C119.571 21.3533 119.918 21.38 120.411 21.38ZM127.9 9.82H130.82V12.18H127.9V9.82ZM127.9 13.32H130.82V23H127.9V13.32ZM133.465 13.32H136.345V14.5C136.571 13.58 137.605 13.12 139.445 13.12C140.685 13.12 141.551 13.3467 142.045 13.8C142.551 14.24 142.805 14.94 142.805 15.9V23H139.885V16.28C139.885 15.9067 139.845 15.6267 139.765 15.44C139.698 15.2533 139.551 15.12 139.325 15.04C139.111 14.96 138.778 14.92 138.325 14.92C137.751 14.92 137.331 14.96 137.065 15.04C136.798 15.1067 136.618 15.2333 136.525 15.42C136.431 15.6067 136.385 15.8933 136.385 16.28V23H133.465V13.32Z" fill="white"/>
<defs>
<clipPath id="clip0_222_1877">
<rect width="30.1417" height="26.36" fill="white" transform="translate(0 2.82001)"/>
</clipPath>
</defs>
</svg>
